Coordinates
version=1
nRows=8
nColumns=40
inDegrees=yes

Units are S.I. units (second, meters, Newtons, ...)
If the header above contains a line with 'inDegrees', this indicates whether rotational values are in degrees (yes) or radians (no).

endheader
time	pelvis_tilt	pelvis_list	pelvis_rotation	pelvis_tx	pelvis_ty	pelvis_tz	hip_flexion_r	hip_adduction_r	hip_rotation_r	knee_angle_r	knee_angle_r_beta	ankle_angle_r	subtalar_angle_r	mtp_angle_r	hip_flexion_l	hip_adduction_l	hip_rotation_l	knee_angle_l	knee_angle_l_beta	ankle_angle_l	subtalar_angle_l	mtp_angle_l	lumbar_extension	lumbar_bending	lumbar_rotation	arm_flex_r	arm_add_r	arm_rot_r	elbow_flex_r	pro_sup_r	wrist_flex_r	wrist_dev_r	arm_flex_l	arm_add_l	arm_rot_l	elbow_flex_l	pro_sup_l	wrist_flex_l	wrist_dev_l
      5.12000000000000010658	     42.70815023647308095178	     -0.02860184090785290387	   -177.60283648039845161293	      0.46411218342868248987	      0.62415590042906110568	     -0.61905775782919691963	    105.15707092818372814236	    -12.35452425780740171035	     -0.51803407073188045828	     77.86874190217676527936	      1.35906593057865676677	     19.24330972896468594513	      0.00000000000000000000	      0.00000000000000000000	    104.06629213327620675500	     -8.44550322966243349754	      2.79174766798425677550	     75.53422244897224402393	      1.31832087966838029658	     16.81087938913738710767	      0.00000000000000000000	      0.00000000000000000000	    -25.98002564774769140854	      1.97145288838294008293	      3.53760814436550585782	     63.82348931548612824827	    -10.40842733563544086905	     42.45657583474378071742	      1.14844458802062754366	     86.04388930024873616276	      0.00000000000000000000	      0.00000000000000000000	     54.31874389659717650147	     -1.29481862287848858983	     56.82308017243862252599	      0.56021538122639513713	      2.49570200060460267721	      0.00000000000000000000	      0.00000000000000000000
      5.12500000000000000000	     42.89175054331999348278	     -0.06041087006274749316	   -177.64444107768659364410	      0.46403360235850110715	      0.62577424776017198660	     -0.61895708299426588361	    105.07937710397587238731	    -12.31786981119288881814	     -0.56798459260142886151	     77.46382998144787279671	      1.35199888438136328617	     19.11132122758792561967	      0.00000000000000000000	      0.00000000000000000000	    103.97501033451446517120	     -8.47354638454524966562	      2.69734165358832322923	     75.15814667591034492489	      1.31175711919146698037	     16.67335848694934696823	      0.00000000000000000000	      0.00000000000000000000	    -26.02568123787380827139	      1.95207433800516483302	      3.49802480503490320629	     63.95329969898329380840	    -10.35879240560566216800	     42.46404021097581704680	      1.14673750326370860186	     86.11098553906704466954	      0.00000000000000000000	      0.00000000000000000000	     54.82998427417206954715	     -1.07284512069821902358	     53.32127827364833194679	      0.57112591306663407220	      2.50571472972131248369	      0.00000000000000000000	      0.00000000000000000000
      5.12999999999999989342	     43.15945392886178666458	     -0.28922039807057964289	   -177.54798393813450729795	      0.46428200913405465178	      0.62732205471272550756	     -0.61835868056247367264	    105.20419644211438026105	    -12.45262878222507829662	     -0.37434010880065266003	     77.08319762028980903779	      1.34535559643951496689	     18.74452058439244694910	      0.00000000000000000000	      0.00000000000000000000	    103.93238430789605786231	     -8.48740049693180687029	      2.15935059019423425397	     74.72764947077716612966	      1.30424352554125966286	     16.39236308397348551580	      0.00000000000000000000	      0.00000000000000000000	    -25.95930660565100467352	      1.82291212265101187917	      3.30682420916717223491	     64.05419201404595241911	    -10.36856318442808877478	     42.46204886707609205132	      1.14171524766114940164	     86.18887712764936281928	      0.00000000000000000000	      0.00000000000000000000	     54.78430345167625858949	     -1.09964595426907374431	     54.01389977467692915525	      0.56802686025888460275	      2.52160615202638638266	      0.00000000000000000000	      0.00000000000000000000
      5.13499999999999978684	     43.24349736937237054235	     -0.10666416478277961077	   -177.70512947036456807837	      0.46412871978224140568	      0.62906145419065417901	     -0.61874880758426564764	    104.91524729782722147320	    -12.31081434957182985102	     -0.73313019705830884121	     76.63344395477308523823	      1.33750591415333475176	     18.69864055218689813387	      0.00000000000000000000	      0.00000000000000000000	    103.79156442018150130480	     -8.50046634426223768344	      2.53420993958533102841	     74.35141245668444298644	      1.29767695087746948168	     16.33070495055563142728	      0.00000000000000000000	      0.00000000000000000000	    -26.09787966817220805638	      1.94224269162614660011	      3.50878926504695076716	     64.15697333506152233440	    -10.37221365813979012671	     42.65635436471154662286	      1.13735780056600432886	     86.09836499243688479055	      0.00000000000000000000	      0.00000000000000000000	     54.84613674838396235600	     -1.09029508916719852785	     54.05118692225416765496	      0.56863338202638236130	      2.52258706141588628924	      0.00000000000000000000	      0.00000000000000000000
      5.13999999999999968026	     43.42542459047243852410	     -0.15607205807977886369	   -177.60398626309975611548	      0.46424583667771779361	      0.63080553536310846052	     -0.61825701113609610182	    104.85081562929647702731	    -12.45466137179026588910	     -0.72985608937546242458	     76.21949389794308160617	      1.33028112272283371986	     18.45556161245065851517	      0.00000000000000000000	      0.00000000000000000000	    103.69938258859284019309	     -8.48623318060383624584	      2.19125847699056697238	     73.92431976574130203517	      1.29022277720930889089	     16.03346190602300680439	      0.00000000000000000000	      0.00000000000000000000	    -26.13029173409196559419	      1.99024448447921553651	      3.38478498437131003485	     64.27743726232317555969	    -10.38616370049915893503	     42.85615109111793685770	      1.13489010293852765621	     86.12155885612970962484	      0.00000000000000000000	      0.00000000000000000000	     54.87750410288752078714	     -1.07625023254496055003	     54.45596084828596161742	      0.57050002528254140088	      2.52900540303240717321	      0.00000000000000000000	      0.00000000000000000000
      5.14499999999999957367	     43.51799410023120628921	      0.02607681840508220897	   -177.75480756153703509881	      0.46406963788512856084	      0.63248209330713189846	     -0.61868181063843830092	    104.59265951960844631685	    -12.29913212493987018092	     -1.04444895070925380942	     75.79795417331762052982	      1.32292386660016925148	     18.34546501512022231850	      0.00000000000000000000	      0.00000000000000000000	    103.58475263399000709796	     -8.52817324790071573659	      2.53124626061386504006	     73.56695190477520895911	      1.28398553139464133288	     15.96833497308094429457	      0.00000000000000000000	      0.00000000000000000000	    -26.24774440072520320655	      2.11119393023786816599	      3.57467623367635622955	     64.36947759345356701033	    -10.36870186814314642731	     42.87599281916370586032	      1.12653298341273133687	     86.06955944592071716670	      0.00000000000000000000	      0.00000000000000000000	     55.05730836707195408053	     -1.01642061266258165730	     53.44135175629488543336	      0.57039741344175454163	      2.53476131900777179595	      0.00000000000000000000	      0.00000000000000000000
      5.15000000000000035527	     43.75295457576134339206	     -0.19527716718981860677	   -177.81360197265581746251	      0.46414836798607578272	      0.63408907400426961498	     -0.61848424903488530280	    104.63255794701797185553	    -12.25881234907555672464	     -0.93768479296382345467	     75.37288377023854479830	      1.31550498851365982311	     18.05380180561019543006	      0.00000000000000000000	      0.00000000000000000000	    103.48029422610926530979	     -8.57191064881661368702	      2.26507434463954249182	     73.14966053945339297115	      1.27670242312963311271	     15.82199723620412257219	      0.00000000000000000000	      0.00000000000000000000	    -26.22622502017602741375	      1.90283307352777253385	      3.48910880608077311749	     64.46741336490354967736	    -10.32215364195334927899	     42.72052118754962179992	      1.10708447020284994622	     86.09566206794028175864	      0.00000000000000000000	      0.00000000000000000000	     55.24335217650047979987	     -0.97084898377433481720	     52.44060710320963636377	      0.57318306521336082060	      2.54605641246343550321	      0.00000000000000000000	      0.00000000000000000000
      5.15500000000000024869	     43.92806956229248527279	     -0.37532932367511262495	   -177.73686219387283813376	      0.46423248792805876795	      0.63590458440043629018	     -0.61798554683233020146	    104.60102226301860639524	    -12.34557818811482121646	     -0.78285071602255362766	     74.95895763368564246321	      1.30828061457075195406	     17.84579751227399313507	      0.00000000000000000000	      0.00000000000000000000	    103.32121226608086317356	     -8.61280597122993363257	      1.76218290760457518829	     72.69437083290344503439	      1.26875611869989790570	     15.57362155882333354384	      0.00000000000000000000	      0.00000000000000000000	    -26.28140304418193551328	      1.87624591620878011788	      3.29871164878492750816	     64.62215135795226217397	    -10.29818997428979443498	     43.24231036982816078762	      1.09939284184142604950	     86.07052665526590828904	      0.00000000000000000000	      0.00000000000000000000	     55.14761740075770291014	     -1.07292338335508596892	     53.41146229253410382398	      0.57536510977996979666	      2.54934185617159858595	      0.00000000000000000000	      0.00000000000000000000
